<?xml version="1.0" encoding="UTF-8"?><svg width="24px" height="24px" stroke-width="3" viewBox="0 0 24 24" fill="none" xmlns="http://www.w3.org/2000/svg" color="#ffffff"><path d="M10.5 15h-.9a.6.6 0 00-.6.6v4.8a.6.6 0 00.6.6h10.8a.6.6 0 00.6-.6V9.6a.6.6 0 00-.6-.6h-4.8a.6.6 0 00-.6.6v.9" stroke="#ffffff" stroke-width="3" stroke-linecap="round" stroke-linejoin="round"></path><path d="M13.5 15h.9a.6.6 0 00.6-.6v-.9M9 13.5v.9a.6.6 0 01-.6.6H3.6a.6.6 0 01-.6-.6V3.6a.6.6 0 01.6-.6h10.8a.6.6 0 01.6.6v4.8a.6.6 0 01-.6.6h-.9" stroke="#ffffff" stroke-width="3" stroke-linecap="round" stroke-linejoin="round"></path><path d="M9 10.5v-.9a.6.6 0 01.6-.6h.9" stroke="#ffffff" stroke-width="3" stroke-linecap="round" stroke-linejoin="round"></path></svg>