<?xml version="1.0" encoding="UTF-8"?>
<svg id="Layer_1" xmlns="http://www.w3.org/2000/svg" version="1.1" viewBox="0 0 512 512">
  <!-- Generator: Adobe Illustrator 29.6.1, SVG Export Plug-In . SVG Version: 2.1.1 Build 9)  -->
  <defs>
    <style>
      .st0 {
        fill: #fff;
      }
    </style>
  </defs>
  <path class="st0" d="M467,45.2c-8.37-8.47-19.8-13.23-31.71-13.2h-122.93c-8.06.02-15.8,3.21-21.52,8.89L45.09,286.59c-17.46,17.5-17.46,45.82,0,63.32l117,117c17.5,17.47,45.84,17.47,63.34,0l245.65-245.6c5.69-5.71,8.9-13.44,8.92-21.51v-123c.07-11.85-4.61-23.23-13-31.6ZM384,160c-17.67,0-32-14.33-32-32s14.33-32,32-32,32,14.33,32,32-14.33,32-32,32Z"/>
</svg>