<?xml version="1.0" encoding="UTF-8"?><svg width="24px" height="24px" viewBox="0 0 24 24" stroke-width="1.5" fill="none" xmlns="http://www.w3.org/2000/svg" color="#ffffff"><path d="M1 13.857v-3.714a2 2 0 012-2h2.9a1 1 0 00.55-.165l6-3.956a1 1 0 011.55.835v14.286a1 1 0 01-1.55.835l-6-3.956a1 1 0 00-.55-.165H3a2 2 0 01-2-2z" stroke="#ffffff" stroke-width="1.5"></path><path d="M17.5 7.5S19 9 19 11.5s-1.5 4-1.5 4M20.5 4.5S23 7 23 11.5s-2.5 7-2.5 7" stroke="#ffffff" stroke-width="1.5" stroke-linecap="round" stroke-linejoin="round"></path></svg>