<?xml version="1.0" encoding="UTF-8"?><svg width="24px" height="24px" viewBox="0 0 24 24" stroke-width="1.5" fill="none" xmlns="http://www.w3.org/2000/svg" color="#ffffff"><g clip-path="url(#sound-off_svg__clip0_3173_16686)" stroke="#ffffff" stroke-width="1.5"><path d="M18 14l2-2m2-2l-2 2m0 0l-2-2m2 2l2 2" stroke-linecap="round" stroke-linejoin="round"></path><path d="M2 13.857v-3.714a2 2 0 012-2h2.9a1 1 0 00.55-.165l6-3.956a1 1 0 011.55.835v14.286a1 1 0 01-1.55.835l-6-3.956a1 1 0 00-.55-.165H4a2 2 0 01-2-2z"></path></g><defs><clipPath id="sound-off_svg__clip0_3173_16686"><path fill="#fff" d="M0 0h24v24H0z"></path></clipPath></defs></svg>